<svg width="46" height="45" viewBox="0 0 46 45" fill="none" xmlns="http://www.w3.org/2000/svg">
<path d="M38.0682 14.5123L25.9428 39.4317L10.4247 16.4711L38.0682 14.5123Z" stroke="#597AAC"/>
<path d="M37.388 11.4295L22.9318 41.1391L4.43062 13.7648L37.388 11.4295Z" stroke="#043379"/>
<path d="M21.068 25.1852L19.4481 25.2018L19.3962 20.1621L17.5063 20.1816L17.4933 18.9216L22.893 18.866L22.906 20.126L21.0161 20.1454L21.068 25.1852Z" fill="#0057FF"/>
<path d="M23.6789 25.1583L23.953 23.8054L23.125 23.8139L23.113 22.644L24.1929 22.6328L24.4499 21.3701L23.46 21.3803L23.4479 20.2104L24.6899 20.1976L24.964 18.8447L26.4039 18.8299L26.1298 20.1827L27.2097 20.1716L27.4838 18.8187L28.9237 18.8039L28.6497 20.1568L29.4776 20.1483L29.4897 21.3182L28.4097 21.3293L28.1527 22.592L29.1427 22.5818L29.1547 23.7518L27.9128 23.7646L27.6387 25.1175L26.1988 25.1323L26.4729 23.7794L25.3929 23.7905L25.1188 25.1434L23.6789 25.1583ZM25.6329 22.618L26.7128 22.6069L26.9698 21.3442L25.8899 21.3553L25.6329 22.618Z" fill="black"/>
</svg>
